<svg width="43" height="43" viewBox="0 0 43 43" fill="none" xmlns="http://www.w3.org/2000/svg">
<circle cx="21.5" cy="21.5" r="21.5" fill="#731803"/>
<path d="M28.4541 11.9167C27.495 10.8328 26.9664 9.44088 26.9668 8H22.6314V25.2222C22.5979 26.1542 22.2005 27.037 21.5226 27.6846C20.8448 28.3323 19.9395 28.6943 18.9974 28.6944C17.0051 28.6944 15.3495 27.0833 15.3495 25.0833C15.3495 22.6944 17.6786 20.9028 20.0778 21.6389V17.25C15.2372 16.6111 11 20.3333 11 25.0833C11 29.7083 14.8724 33 18.9834 33C23.389 33 26.9668 29.4583 26.9668 25.0833V16.3472C28.7249 17.597 30.8356 18.2676 33 18.2639V13.9722C33 13.9722 30.3622 14.0972 28.4541 11.9167Z" fill="#FBE0A1"/>
</svg>
