<svg width="42" height="42" viewBox="0 0 42 42" fill="none" xmlns="http://www.w3.org/2000/svg">
<path d="M24.4125 21L18.9 17.85V24.15L24.4125 21Z" fill="#731803"/>
<path fill-rule="evenodd" clip-rule="evenodd" d="M0 21C0 9.40202 9.40202 0 21 0C32.598 0 42 9.40202 42 21C42 32.598 32.598 42 21 42C9.40202 42 0 32.598 0 21ZM29.1375 14.0438C30.0563 14.3063 30.7125 14.9625 30.975 15.8813C31.5 17.5875 31.5 21 31.5 21C31.5 21 31.5 24.4125 31.1063 26.1188C30.8438 27.0375 30.1875 27.6938 29.2687 27.9563C27.5625 28.35 21 28.35 21 28.35C21 28.35 14.3062 28.35 12.7312 27.9563C11.8125 27.6938 11.1563 27.0375 10.8938 26.1188C10.5 24.4125 10.5 21 10.5 21C10.5 21 10.5 17.5875 10.7625 15.8813C11.025 14.9625 11.6813 14.3063 12.6 14.0438C14.3063 13.65 20.8687 13.65 20.8687 13.65C20.8687 13.65 27.5625 13.65 29.1375 14.0438Z" fill="#731803"/>
</svg>